<?xml version="1.0" encoding="UTF-8"?>
<svg width="320px" height="42px" viewBox="0 0 320 42" version="1.1" xmlns="http://www.w3.org/2000/svg" xmlns:xlink="http://www.w3.org/1999/xlink">
    <title>Group 48</title>
    <g id="Page-1" stroke="none" stroke-width="1" fill="none" fill-rule="evenodd">
        <g id="Group-48" transform="translate(0.000000, 1.000000)">
            <rect id="Rectangle-Copy-14" fill="#E7E7E7" x="0" y="20" width="320" height="1"></rect>
            <g id="Group-15" transform="translate(140.000000, 0.000000)">
                <rect id="Rectangle" stroke="#E7E7E7" fill="#FFFFFF" x="0" y="0" width="40" height="40" rx="20"></rect>
                <g id="icon/-home" opacity="0.600000024" transform="translate(20.195262, 19.809756) rotate(-90.000000) translate(-20.195262, -19.809756) translate(13.323005, 12.937499)" fill="#000000" fill-rule="nonzero">
                    <path d="M11.0625006,2.01032822 L11.113287,2.01225342 C11.1374579,2.0140889 11.161548,2.01723684 11.1854414,2.02169731 C11.2456799,2.03287691 11.3030081,2.05218338 11.3563232,2.07840302 C11.365682,2.08294992 11.3755516,2.08809363 11.3853143,2.09350102 C11.4051157,2.10456785 11.4236428,2.11610211 11.4415345,2.12848923 C11.4522791,2.13585723 11.463101,2.14383707 11.4737278,2.15218541 C11.4911737,2.16592776 11.507846,2.18040323 11.5237629,2.19566047 C11.5273512,2.19910452 11.5305131,2.20220177 11.5336515,2.20533682 L11.5473926,2.21947264 C11.5625635,2.23554531 11.5769441,2.25237205 11.5904721,2.26989071 L11.5336515,2.20533682 C11.5666885,2.23833829 11.5955392,2.27394393 11.6202032,2.31149375 C11.6288717,2.32478337 11.6373233,2.33871802 11.6452669,2.35297443 C11.6532938,2.36731506 11.660499,2.38146775 11.6671664,2.39580879 C11.6762597,2.41532789 11.6846883,2.43601176 11.6920792,2.45718241 C11.6959306,2.4683531 11.6993683,2.47912868 11.7025253,2.48996868 C11.7089916,2.5119366 11.7143425,2.5345702 11.7185089,2.55761592 C11.7204142,2.56846295 11.7220866,2.5792011 11.7234961,2.58996711 L11.7291673,2.67699488 L11.7291673,8.01032822 C11.7291673,8.37851805 11.4306905,8.67699488 11.0625006,8.67699488 C10.7206101,8.67699488 10.4388292,8.41963476 10.4003191,8.08807563 L10.395834,8.01032822 L10.3943467,4.28732821 L3.15367148,11.53867 C2.89346205,11.7991596 2.47135213,11.7993867 2.21086257,11.5391772 C1.97041068,11.2989839 1.95172088,10.9208399 2.15493008,10.6592031 L2.21035535,10.5963683 L9.45334675,3.34332821 L5.73954488,3.34366155 C5.39765432,3.34366155 5.11587343,3.08630142 5.07736336,2.7547423 L5.07287821,2.67699488 C5.07287821,2.33510432 5.33023834,2.05332344 5.66179746,2.01481337 L5.73954488,2.01032822 L11.0625006,2.01032822 Z" id="Combined-Shape" transform="translate(6.872257, 6.872257) scale(-1, 1) rotate(45.000000) translate(-6.872257, -6.872257) "></path>
                </g>
            </g>
        </g>
    </g>
</svg>