<svg xmlns="http://www.w3.org/2000/svg" width="40" height="40" viewBox="0 0 40 40">
    <path d="M23.337 19.194c3.357 4.644 4.433 8.198 2.707 10.75-.163.24-.384.433-.643.56l-.159.069L5.712 37.8c-.501.186-1.061.12-1.505-.178-.863-.576-1.461-1.09-1.831-1.628-.4-.58-.625-1.318-.738-2.232-.034-.268-.001-.54.093-.791l.065-.149 9.296-18.925c.245-.5.726-.845 1.279-.918 3.985-.523 7.66 1.643 10.966 6.215zM7.41 28.95l-2.387 4.86.036.135.039.114.025.048c.02.03.061.074.12.129l.066.059.083.07 5.075-1.88C9.221 31.397 8.2 30.219 7.41 28.95zm3.407-6.935-1.766 3.592c.806 2.016 2.332 3.84 4.621 5.473.065.046.125.097.18.152l4.557-1.685c-3.108-1.736-5.641-4.255-7.592-7.532zm2.836-5.774-1.14 2.318.053.113c2.115 4.44 5.162 7.465 9.164 9.145.188.08.352.19.488.32l1.24-.46.03-.127c.194-1.088-.508-3.003-2.36-5.703l-.21-.303-.282-.396c-2.273-3.143-4.496-4.715-6.708-4.892l-.229-.013-.046-.002zm24.423 2.255a1.667 1.667 0 1 1-2.144 2.552c-3.038-2.551-5.38-2.551-7.73-.118a1.667 1.667 0 1 1-2.397-2.315c3.62-3.751 7.946-3.751 12.27-.12zM27.12 2.54c3.633 4.325 3.633 8.65-.118 12.27a1.667 1.667 0 1 1-2.315-2.397c2.433-2.35 2.433-4.691-.12-7.73A1.667 1.667 0 1 1 27.12 2.54zm8.514 2.846.028.824.017.289c.04.457.134.528.466.339l.206-.129.58-.394a1.667 1.667 0 1 1 1.865 2.762c-3.605 2.436-6.328.864-6.493-3.567a1.667 1.667 0 1 1 3.331-.124zm-17.3-2.053a3.333 3.333 0 1 1 0 6.667 3.333 3.333 0 0 1 0-6.667z" fill="#BF1304" fill-rule="nonzero"/>
</svg>