<svg width="18px" height="20px" viewBox="0 0 18 20" version="1.1" xmlns="http://www.w3.org/2000/svg" xmlns:xlink="http://www.w3.org/1999/xlink">
    <title>Combined Shape</title>
    <g id="Page-1" stroke="none" stroke-width="1" fill="none" fill-rule="evenodd">
        <g id="DCHF-dashboard-" transform="translate(-832.000000, -284.000000)" fill="#000000" fill-rule="nonzero">
            <g id="Group-8" transform="translate(408.000000, 214.000000)">
                <g id="Group-17" transform="translate(80.000000, 43.000000)">
                    <g id="Group-10-Copy-2" transform="translate(344.911453, 0.000000)">
                        <g id="Group-28" transform="translate(0.000000, 22.000000)">
                            <path d="M8.06868545,5 L8.08637571,5.0003224 C8.10538776,5.00081447 8.12438759,5.00186979 8.14334722,5.00348838 L8.06868545,5 C8.11947505,5 8.16933608,5.00397571 8.21797429,5.0116329 C8.22430652,5.0138523 8.23131941,5.01508416 8.23832014,5.01639458 C8.5062532,5.06339991 8.73482278,5.22323879 8.87462402,5.44471132 L15.9191757,14.4115985 C15.9272155,14.4218309 15.935017,14.4321869 15.9425803,14.4426592 C15.9587695,14.4648139 15.9742247,14.4883691 15.9887116,14.5127715 C15.9950372,14.5234535 16.0010612,14.5340232 16.006867,14.5446782 C16.017512,14.5643223 16.0277496,14.5848541 16.0373168,14.605902 L16.0441884,14.6211454 C16.0529012,14.6412361 16.0608887,14.6615606 16.0681508,14.6820798 L16.0373168,14.605902 C16.0556749,14.6462899 16.0709784,14.6872881 16.0833245,14.7286369 C16.0902954,14.7522139 16.0964171,14.7762313 16.1015881,14.8004075 C16.1055375,14.8180535 16.1088198,14.8357563 16.111588,14.8534754 C16.1138955,14.8696961 16.1159986,14.8860089 16.1176786,14.9023561 C16.1206374,14.9287438 16.1222228,14.9548363 16.1227331,14.9808614 C16.1228016,14.9957473 16.1227425,15.0114548 16.1222961,15.0271536 C16.1218164,15.0502931 16.1203456,15.0726872 16.1180928,15.094961 C16.1163399,15.1111746 16.1142317,15.127892 16.1116793,15.1445559 C16.10804,15.1685393 16.1035209,15.1918799 16.0981462,15.214999 C16.0944071,15.23126 16.0900846,15.2479232 16.0853033,15.2644844 C16.078943,15.286222 16.0718934,15.307689 16.0640952,15.3288796 C16.0580094,15.3456994 16.0513435,15.3623558 16.0441884,15.3788546 C16.012744,15.451275 15.9722456,15.5201222 15.9233982,15.5833003 L8.87462402,24.5552887 C8.73482278,24.7767612 8.5062532,24.9366001 8.23888525,24.9848354 C8.23131941,24.9849158 8.22430652,24.9861477 8.21728294,24.987301 C8.19170138,24.9925033 8.16507166,24.9955653 8.13813152,24.9975067 C8.12500767,24.9979804 8.11267018,24.9987167 8.10032465,24.9992154 C8.09030543,24.9998192 8.07951655,25 8.06868545,25 L8.03653941,24.9996776 C8.01417564,24.9990988 7.99182877,24.9977406 7.96954435,24.9956031 L8.06868545,25 C8.02760381,25 7.98712969,24.9973989 7.9474188,24.9923523 C7.70788686,24.9646624 7.47724554,24.8455911 7.31258295,24.6360205 L0.203739414,15.5884015 C0.150669527,15.5201222 0.110171154,15.451275 0.0787167553,15.3786121 C0.0715716624,15.3623558 0.0649057294,15.3456994 0.0587289644,15.3289069 C0.0510217306,15.307689 0.0439721307,15.286222 0.0376872514,15.2645215 C0.032830552,15.2479232 0.0285080053,15.23126 0.0246441461,15.2145144 C0.019090437,15.1905734 0.0143671253,15.1659006 0.0106209867,15.1410394 C0.00894797925,15.1292403 0.00747093632,15.1179206 0.00619772686,15.1065827 C0.00267708464,15.0768296 0.000671835758,15.0464056 0.000142293408,15.0158489 C0.000193498097,15.0056142 0.00018874743,14.9952628 0.000352187801,14.9849135 C0.000532583019,14.9575124 0.0021400425,14.9300821 0.00496182586,14.902647 C0.00689797309,14.8861528 0.00900843546,14.8697678 0.0115457036,14.853435 C0.0144608865,14.833416 0.0182536279,14.8133776 0.0227160766,14.7933889 C0.0270758923,14.7743573 0.0319006619,14.7553785 0.0373191946,14.7365312 C0.0441432156,14.7127616 0.0520070792,14.6890537 0.0608666648,14.6655059 C0.0663657761,14.6506932 0.0721437066,14.6363725 0.0782839225,14.6221682 C0.080574278,14.6170953 0.0830570357,14.6114928 0.0855983294,14.605902 L0.116048161,14.5446782 C0.14118632,14.4985429 0.170416738,14.4540092 0.203739414,14.4115985 L0.134,14.513 L0.141788434,14.5002159 C0.154050423,14.4802666 0.166966752,14.4609005 0.180496192,14.442133 L0.203739414,14.4115985 L7.31258295,5.36397947 C7.47724554,5.15440891 7.70788686,5.03533759 7.94752348,5.0067655 C7.95408468,5.00680054 7.96077206,5.00602234 7.96748021,5.00531377 C7.99512234,5.0018873 8.02280184,5.00037769 8.05049275,5.00006242 C8.05651382,5.00005721 8.06259295,5 8.06868545,5 Z M4.115,17.484 L7.116,21.303 L7.116,18.848 L4.115,17.484 Z M12.007,17.484 L9.021,18.841 L9.021,21.283 L12.007,17.484 Z M7.116,8.696 L2.451,14.634 L7.116,16.754 L7.116,8.696 Z M9.021,8.715 L9.021,16.748 L13.671,14.634 L9.021,8.715 Z" id="Combined-Shape"></path>
                        </g>
                    </g>
                </g>
            </g>
        </g>
    </g>
</svg>