<svg width="16" height="16" viewBox="0 0 16 16" xmlns="http://www.w3.org/2000/svg">
    <path d="M6.257 2.606a2 2 0 0 1 3.486 0l4.845 8.613a2 2 0 0 1-1.743 2.981h-9.69a2 2 0 0 1-1.743-2.98zm2.07.4a.667.667 0 0 0-.908.253l-4.845 8.614a.667.667 0 0 0 .58.994h9.691a.667.667 0 0 0 .581-.994L8.581 3.26a.667.667 0 0 0-.254-.254zM8 10.865A.667.667 0 1 1 8 12.2a.667.667 0 0 1 0-1.333zm0-5.333c.368 0 .667.299.667.667v3.333a.667.667 0 0 1-1.334 0V6.2c0-.368.299-.667.667-.667z" fill="#FF9100" fill-rule="nonzero"/>
</svg>
