<svg aria-hidden="true" xmlns="http://www.w3.org/2000/svg" xmlns:xlink="http://www.w3.org/1999/xlink">
    <defs>
        <symbol id="icon-dashboard" viewBox="0 0 24 24">
            <title>Dashboard Icon</title>
            <path d="M21 3v8H3V3h18Zm-2 2H5v4h14V5ZM11 13v8H3v-8h8Zm-2 2H5v4h4v-4ZM21 13v8h-8v-8h8Zm-2 2h-4v4h4v-4Z"/><path d="M21 3v8H3V3h18Zm-2 2H5v4h14V5ZM11 13v8H3v-8h8Zm-2 2H5v4h4v-4ZM21 13v8h-8v-8h8Zm-2 2h-4v4h4v-4Z"/>
        </symbol>
        <symbol id="icon-arrow-down" viewBox="0 0 24 24">
            <title>Arrow Down Icon</title>
            <path d="M19.404 8.197a1 1 0 0 1 1.288 1.525l-.096.08-8.08 6a1 1 0 0 1-1.083.072l-.11-.071-7.92-5.88a1 1 0 0 1 1.088-1.674l.105.068 7.323 5.437 7.485-5.557Z"/>
        </symbol>
        <symbol id="icon-arrow-left" viewBox="0 0 24 24">
            <title>Arrow Left Icon</title>
            <path d="M15.803 19.404a1 1 0 0 1-1.525 1.288l-.08-.096-6-8.08a1 1 0 0 1-.072-1.083l.071-.11 5.88-7.92a1 1 0 0 1 1.674 1.088l-.068.105-5.437 7.323 5.557 7.485Z"/>
        </symbol>
        <symbol id="icon-arrow-left-alt" viewBox="0 0 16 16">
            <title>Arrow Left Alt Icon</title>
            <path d="m1.79 7.72-.035.038a.67.67 0 0 0-.16.433v.02a.67.67 0 0 0 .005.066l-.006-.086a.67.67 0 0 0 .144.414l.051.058 3.772 3.771a.667.667 0 0 0 .994-.884l-.052-.058-2.631-2.634 10.247.007a.667.667 0 0 0 .085-1.328l-.084-.005-10.25-.007 2.626-2.626a.667.667 0 0 0 .052-.884l-.052-.059a.667.667 0 0 0-.885-.051l-.058.051L1.79 7.72z"/>
        </symbol>
        <symbol id="icon-gas" viewBox="0 0 24 24">
            <title>Gac Icon</title>
            <path d="M12 3a2 2 0 0 1 2 2v6.852h.438a3 3 0 0 1 2.995 2.824l.005.177-.001 4.189.008.035c.1.395.226.522.476.542l.079.003c.255 0 .364-.067.436-.386l.029-.16v-7.27a2.5 2.5 0 1 1-1.615-4.722l-2.13-2.13a1 1 0 0 1 1.32-1.497l.095.084L19 6.407a5 5 0 0 1 1.458 3.271l.007.265v9.213l-.01.142c-.208 1.442-1.09 2.324-2.456 2.324-1.281 0-2.161-.772-2.497-2.072l-.044-.189-.021-.205v-4.303a1 1 0 0 0-.884-.994l-.116-.006-.438-.001V21H4V5a2 2 0 0 1 2-2h6Zm0 8H6v8h6v-8Zm5.5-2a.5.5 0 1 0 0 1 .5.5 0 0 0 0-1ZM12 5H6v4h6V5Z"/>
        </symbol>
        <symbol id="icon-home" viewBox="0 0 24 24">
            <title>Home Icon</title>
            <path d="m12.26.693 9.262 7.798v10.03A4.488 4.488 0 0 1 17.043 23H7.478A4.488 4.488 0 0 1 3 18.522V8.492l9.26-7.8Zm.001 2.614L5 9.421v9.1a2.49 2.49 0 0 0 2.316 2.474l.162.005h1.608l.001-6.087h6.348L15.434 21h1.61a2.49 2.49 0 0 0 2.472-2.316l.006-.162-.001-9.101-7.26-6.114Zm1.173 13.606h-2.348V21h2.348v-4.087Z"/>
        </symbol>
        <symbol id="icon-info" viewBox="0 0 24 24">
            <title>Info Icon</title>
            <path d="M12 2C6.477 2 2 6.477 2 12s4.477 10 10 10 10-4.477 10-10S17.523 2 12 2Zm0 2a8 8 0 1 1 0 16 8 8 0 0 1 0-16Zm0 3a1 1 0 0 0-1 1v5a1 1 0 0 0 2 0V8a1 1 0 0 0-1-1Zm0 8a1 1 0 1 0 0 2 1 1 0 0 0 0-2Z"/>
        </symbol>
        <symbol id="icon-invest-money" viewBox="0 0 24 24">
            <title>Invest Money Icon</title>
            <path d="M22.533 4a1 1 0 0 1 .994.883l.006.117v10.713a1 1 0 0 1-.883.993l-.117.007h-1.678v1.678a1 1 0 0 1-.883.994l-.117.006H2a1 1 0 0 1-1-1V7.678a1 1 0 0 1 1-1h1.678V5a1 1 0 0 1 .884-.993L4.678 4h17.855Zm-3.678 4.678H3v8.713h15.855V8.678Zm-7.927.679a3.678 3.678 0 1 1 0 7.356 3.678 3.678 0 0 1 0-7.356ZM21.533 6H5.678v.678h14.177a1 1 0 0 1 .993.884l.007.116v7.035h.678V6Zm-10.605 5.357a1.678 1.678 0 1 0 0 3.356 1.678 1.678 0 0 0 0-3.356Z"/>
        </symbol>
        <symbol id="icon-minus" viewBox="0 0 24 24">
            <title>Minus Icon</title>
            <rect transform="rotate(90 12 12)" x="11" y="4" width="2" height="16" rx="1"/>
        </symbol>
        <symbol id="icon-moon" viewBox="0 0 24 24">
            <title>Moon Icon</title>
            <path d="M10.373 3.517A8.054 8.054 0 0 0 9.248 7.58a8 8 0 0 0 8 8c.832 0 1.673-.134 2.438-.375.872-.275 1.65.68 1.187 1.47-1.777 3.031-5.026 4.905-8.625 4.905-5.523 0-10-4.477-10-10a9.967 9.967 0 0 1 6.969-9.53c.873-.276 1.619.678 1.156 1.468ZM7.576 5.075l-.134.097a7.988 7.988 0 0 0-3.194 6.407 8 8 0 0 0 8 8c1.9 0 3.68-.649 5.08-1.791l.252-.216-.332.007c-5.43 0-9.848-4.327-9.997-9.72l-.003-.28c0-.823.106-1.644.312-2.444l.016-.06Z"/>
        </symbol>
        <symbol id="icon-options" viewBox="0 0 24 24">
            <title>Options Icon</title>
            <path d="M5 9a3 3 0 1 0 0 6 3 3 0 0 0 0-6Zm0 2a1 1 0 1 1 0 2 1 1 0 0 1 0-2Zm7-2a3 3 0 1 0 0 6 3 3 0 0 0 0-6Zm0 2a1 1 0 1 1 0 2 1 1 0 0 1 0-2Zm7-2a3 3 0 1 0 0 6 3 3 0 0 0 0-6Zm0 2a1 1 0 1 1 0 2 1 1 0 0 1 0-2Z"/>
        </symbol>
        <symbol id="icon-plus" viewBox="0 0 24 24">
            <title>Plus Icon</title>
            <path d="M12 4a1 1 0 0 1 1 1v5.999L19 11a1 1 0 0 1 0 2h-6v6a1 1 0 0 1-2 0v-6H5a1 1 0 0 1 0-2h6V5a1 1 0 0 1 1-1Z"/>
        </symbol>
        <symbol id="icon-redemption" viewBox="0 0 24 24">
            <title>Redemption Icon</title>
            <path d="M3.436 9.21a1 1 0 0 1 1.32.083l2.75 2.749.083.094a1 1 0 0 1-.084 1.32l-.094.083a1 1 0 0 1-1.32-.083l-1.081-1.08a7 7 0 0 0 12.734 3.625h2.32a9 9 0 0 1-17.053-3.55l-1.004 1.005-.094.083a1 1 0 0 1-1.32-1.497l2.749-2.75ZM12 3c4.462 0 8.166 3.247 8.877 7.507l1.214-1.214a1 1 0 0 1 1.32-.083l.094.083a1 1 0 0 1 .084 1.32l-.084.094-2.749 2.75a1 1 0 0 1-1.32.082l-.094-.083-2.75-2.749a1 1 0 0 1 1.32-1.497l.095.083.7.699A7.003 7.003 0 0 0 7.103 6.999H4.516A8.991 8.991 0 0 1 12 3Z"/>
        </symbol>
        <symbol id="icon-stake" viewBox="0 0 24 24">
            <title>Stake Icon</title>
            <path d="M2.34 6.423 12 .845l9.66 5.578v11.154L12 23.155l-9.66-5.578V6.423ZM12 3.155 4.339 7.577v8.845L12 20.844l7.66-4.422V7.577L12 3.155Zm0 3.926a5 5 0 1 1 0 10 5 5 0 0 1 0-10Zm0 2a3 3 0 1 0 0 6 3 3 0 0 0 0-6Z"/>
        </symbol>
        <symbol id="icon-sun" viewBox="0 0 24 24">
            <title>Sun Icon</title>
            <path d="M12 18a1 1 0 0 1 1 1v2a1 1 0 0 1-2 0v-2a1 1 0 0 1 1-1Zm5-2c.256 0 .523.086.719.281l1.375 1.375c.391.39.39 1.047 0 1.438a.99.99 0 0 1-1.406 0l-1.407-1.375a1.029 1.029 0 0 1 0-1.438c.195-.195.463-.281.719-.281ZM7 16c.256.001.524.086.719.281a1.03 1.03 0 0 1 0 1.438l-1.375 1.343a1.028 1.028 0 0 1-1.438 0 .991.991 0 0 1 0-1.406l1.375-1.375A1.01 1.01 0 0 1 7 16Zm5-9a5 5 0 1 1-.001 10.001A5 5 0 0 1 12 7Zm0 2a3 3 0 1 0 .001 6.001A3 3 0 0 0 12 9Zm-7 2a1 1 0 0 1 0 2H3a1 1 0 0 1 0-2Zm16 0a1 1 0 0 1 0 2h-2a1 1 0 0 1 0-2ZM5.625 4.625c.256 0 .523.117.719.313l1.375 1.343c.391.39.39 1.047 0 1.438s-1.047.39-1.438 0L4.938 6.344a.99.99 0 0 1 0-1.406c.195-.196.431-.313.687-.313Zm12.719.031c.256 0 .523.086.718.282a.99.99 0 0 1 0 1.406l-1.343 1.375a1.03 1.03 0 0 1-1.438 0 1.03 1.03 0 0 1 0-1.438l1.375-1.343a.94.94 0 0 1 .688-.282ZM12 2a1 1 0 0 1 1 1v2a1 1 0 0 1-2 0V3a1 1 0 0 1 1-1Z" />
        </symbol>
        <symbol id="icon-trove" viewBox="0 0 24 24">
            <title>Trove Icon</title>
            <path d="m2 7.706 9 3.53V23l-9-3.53V7.707Zm20 0V19.47L13 23V11.235l9-3.53ZM4 10.638v7.468l5 1.961v-7.468l-5-1.961Zm16.001 0-5 1.961v7.468l5-1.961v-7.468Zm-7.891-8.58 9.89 4-9.935 4L2 6.059l10.11-4ZM12.1 4.213 7.425 6.063l4.634 1.841 4.596-1.85-4.554-1.842Z"/>
        </symbol>
        <symbol id="icon-wallet" viewBox="0 0 24 24">
            <title>Wallet Icon</title>
            <path d="M19 4a1 1 0 0 1 .993.883L20 5v3h1a1 1 0 0 1 .993.883L22 9v8c0 1.929-.93 2.927-2.79 2.996L19 20H5c-1.929 0-2.927-.93-2.996-2.79L2 17V7a3 3 0 0 1 2.824-2.995L5 4h14ZM4 9.992l.001 7.143.01.233c.034.453.168.587.621.622l.233.01h14.27l.233-.01c.453-.035.587-.169.621-.622l.01-.233L20 10H4.143c-.048 0-.096-.003-.143-.008ZM17 10a3 3 0 1 1 0 6 3 3 0 0 1 0-6Zm0 2a1 1 0 1 0 0 2 1 1 0 0 0 0-2Zm1-6H5a1 1 0 0 0-.993.883L4 7v1.008c.047-.005.095-.008.143-.008H18V6Z"/>
        </symbol>
        <symbol id="icon-discord" viewBox="0 0 24 24">
            <title>Discord Icon</title>
            <path d="M17.545 7.061a12.824 12.824 0 0 0-3.257-1.05.049.049 0 0 0-.052.025c-.141.26-.297.6-.406.867a11.713 11.713 0 0 0-3.658 0 8.92 8.92 0 0 0-.412-.867.05.05 0 0 0-.052-.026 12.788 12.788 0 0 0-3.257 1.051.047.047 0 0 0-.021.02c-2.074 3.223-2.643 6.368-2.364 9.474.001.015.01.03.02.039a13.076 13.076 0 0 0 3.996 2.101.05.05 0 0 0 .056-.02c.308-.436.582-.897.818-1.382a.053.053 0 0 0-.028-.074 8.592 8.592 0 0 1-1.248-.618.055.055 0 0 1-.005-.089c.084-.065.168-.133.248-.202a.048.048 0 0 1 .051-.007c2.619 1.243 5.454 1.243 8.041 0a.048.048 0 0 1 .053.006c.08.069.164.138.248.203a.055.055 0 0 1-.004.089 8.062 8.062 0 0 1-1.249.618.054.054 0 0 0-.027.074c.24.484.515.945.817 1.382a.05.05 0 0 0 .056.02 13.031 13.031 0 0 0 4.001-2.101.054.054 0 0 0 .021-.038c.334-3.591-.559-6.71-2.366-9.475a.041.041 0 0 0-.02-.02Zm-8.402 8.176c-.94 0-1.714-.777-1.714-1.73 0-.954.759-1.73 1.714-1.73.962 0 1.729.783 1.714 1.73 0 .953-.76 1.73-1.714 1.73Zm5.714 0c-.94 0-1.714-.777-1.714-1.73 0-.954.76-1.73 1.714-1.73.962 0 1.73.783 1.714 1.73 0 .953-.752 1.73-1.714 1.73Z"/>
        </symbol>
        <symbol id="icon-linkedin" viewBox="0 0 24 24">
            <title>Linkedin Icon</title>
            <path d="M9.72 8.614h3.158v1.634h.049c.441-.802 1.52-1.634 3.12-1.634 3.335 0 3.953 2.099 3.953 4.832V19h-3.296v-4.93c0-1.179-.02-2.684-1.717-2.684-1.717 0-1.981 1.277-1.981 2.604V19H9.709V8.614h.01ZM7.432 5.733a1.72 1.72 0 0 1-1.716 1.732A1.72 1.72 0 0 1 4 5.733C4 4.773 4.765 4 5.717 4a1.72 1.72 0 0 1 1.716 1.733ZM4 8.613h3.433V19H4V8.614Z"/>
        </symbol>
        <symbol id="icon-medium" viewBox="0 0 24 24">
            <title>Medium Icon</title>
            <path d="M7 17.093c2.761 0 5-2.26 5-5.047S9.761 7 7 7s-5 2.26-5 5.046c0 2.787 2.239 5.047 5 5.047Zm8.889 0c1.534 0 2.778-2.26 2.778-5.047S17.423 7 15.889 7s-2.778 2.26-2.778 5.046c0 2.787 1.244 5.047 2.778 5.047Zm5 0c.614 0 1.111-2.26 1.111-5.047S21.503 7 20.889 7s-1.111 2.26-1.111 5.046c0 2.787.497 5.047 1.11 5.047Z"/>
        </symbol>
        <symbol id="icon-twitter" viewBox="0 0 30 30">
            <title>Twitter Icon</title>
            <path d="M25.2688 9.53141C25.2846 9.76543 25.2846 9.99945 25.2846 10.2356C25.2846 17.432 19.9588 25.7316 10.2203 25.7316V25.7273C7.34353 25.7316 4.52651 24.884 2.10474 23.2857C2.52304 23.3375 2.94345 23.3634 3.3649 23.3645C5.74893 23.3666 8.06482 22.5438 9.94038 21.0286C7.67482 20.9844 5.68812 19.4648 4.99409 17.2465C5.78772 17.404 6.60546 17.3716 7.38441 17.1527C4.91441 16.6394 3.1374 14.407 3.1374 11.8145C3.1374 11.7907 3.1374 11.7681 3.1374 11.7454C3.87337 12.1671 4.6974 12.4011 5.5403 12.427C3.21393 10.8277 2.49683 7.64416 3.90167 5.15514C6.58974 8.55759 10.5558 10.626 14.8133 10.8449C14.3866 8.95337 14.9695 6.97122 16.345 5.64151C18.4774 3.57955 21.8312 3.68524 23.8357 5.87769C25.0214 5.6372 26.1579 5.18965 27.1979 4.55553C26.8026 5.81622 25.9755 6.8871 24.8705 7.56759C25.9199 7.44034 26.9452 7.15132 27.9108 6.71024C27.2 7.80592 26.3047 8.76034 25.2688 9.53141Z"></path>
        </symbol>
        <symbol id="icon-line" viewBox="0 0 8 10">
            <title>Line Icon</title>
            <path d="M0 0h8v1.429H0V0Zm0 8.571h8V10H0V8.571Zm1-4.285h6v1.428H1V4.286Z"/>
        </symbol>
        <symbol id="icon-search" viewBox="0 0 16 16">
            <title>Search Icon</title>
            <path d="M7.188 1.333a5.854 5.854 0 0 1 4.584 9.495l2.63 2.632a.667.667 0 0 1-.88.998l-.062-.055-2.632-2.63a5.854 5.854 0 1 1-3.64-10.439zm0 1.334a4.52 4.52 0 1 0 3.149 7.764.315.315 0 0 1 .043-.051l.052-.044a4.52 4.52 0 0 0-3.244-7.67z"/>
        </symbol>
        <symbol id="icon-settings" viewBox="0 0 16 16">
            <title>Settings Icon</title>
            <path d="M8.377 2h-.752l-.038.525a1.89 1.89 0 0 1-.932 1.488l-.12.065-.117.054a1.903 1.903 0 0 1-1.975-.32l-.408-.355-.535.522.347.397c.403.467.553 1.098.4 1.714l-.036.131-.04.107a1.9 1.9 0 0 1-1.63 1.224L2 7.59v.746l.541.042c.675.049 1.27.453 1.566 1.055l.051.115a.61.61 0 0 1 .028.082l.003.013.016.043a1.902 1.902 0 0 1-.282 1.745l-.085.105-.35.4.522.522.403-.352a1.902 1.902 0 0 1 1.848-.364l.042.016.02.004.085.03a1.92 1.92 0 0 1 1.16 1.626l.05.581h.752l.04-.556c.05-.675.452-1.27 1.051-1.57l.115-.054a.667.667 0 0 1 .084-.029l.015-.003.043-.016a1.904 1.904 0 0 1 1.745.278l.105.085.4.347.523-.524-.352-.403a1.902 1.902 0 0 1-.364-1.848l.015-.04.002-.008.025-.08a1.896 1.896 0 0 1 1.64-1.2l.543-.04v-.747l-.541-.04a1.899 1.899 0 0 1-1.566-1.054l-.051-.116a.667.667 0 0 1-.028-.082l-.003-.014-.016-.042a1.902 1.902 0 0 1 .282-1.745l.085-.105.35-.4-.532-.533-.402.352a1.902 1.902 0 0 1-1.847.364l-.038-.015-.013-.002-.08-.026a1.874 1.874 0 0 1-1.177-1.596L8.377 2zM8 5.304a2.696 2.696 0 1 1 0 5.392 2.696 2.696 0 0 1 0-5.392zm0 1.334a1.362 1.362 0 1 0 0 2.724 1.362 1.362 0 0 0 0-2.724zm2.06-3.76.032.015-.03-.015.13.045a.57.57 0 0 0 .366-.027l.082-.044.064-.047.87-.76a.667.667 0 0 1 .91.032l1.411 1.414c.248.248.26.646.03.91l-.757.867a.568.568 0 0 0-.094.59l.015.046.02.04c.08.137.214.233.368.267l.078.011 1.16.084a.667.667 0 0 1 .618.665v1.986a.667.667 0 0 1-.616.664l-1.168.088a.565.565 0 0 0-.49.358l.013-.03-.044.132a.57.57 0 0 0 .027.366l.044.082.047.063.759.87a.667.667 0 0 1-.03.91l-1.403 1.405a.667.667 0 0 1-.91.032l-.866-.754a.568.568 0 0 0-.59-.093l-.044.015-.04.02a.58.58 0 0 0-.27.376l-.012.08-.084 1.173a.667.667 0 0 1-.665.62H7.006a.667.667 0 0 1-.664-.61l-.103-1.203a.591.591 0 0 0-.357-.502l.027.013-.11-.036a.57.57 0 0 0-.366.027l-.082.044-.063.047-.87.76a.667.667 0 0 1-.91-.032L2.105 12.44a.667.667 0 0 1-.03-.91l.757-.867a.568.568 0 0 0 .094-.59l-.016-.047-.02-.04a.566.566 0 0 0-.368-.266l-.08-.012-1.159-.087a.667.667 0 0 1-.616-.664V6.97c0-.35.27-.64.618-.665l1.155-.084a.563.563 0 0 0 .482-.358l.027-.074a.567.567 0 0 0-.11-.54l-.759-.87a.667.667 0 0 1 .038-.916l1.429-1.39a.667.667 0 0 1 .903-.025l.867.757c.163.14.39.177.569.103l.07-.031a.553.553 0 0 0 .3-.452l.085-1.142a.667.667 0 0 1 .665-.617H8.99c.347 0 .636.265.665.611l.096 1.153a.542.542 0 0 0 .34.462l-.031-.015z"/>
        </symbol>
        <symbol id="icon-close" viewBox="0 0 24 24">
            <title>Close Icon</title>
            <path d="M17.657 6.343a1 1 0 0 1 0 1.414L13.415 12l4.242 4.244a1 1 0 0 1-1.414 1.414L12 13.414l-4.243 4.243a1 1 0 0 1-1.414-1.414L10.586 12 6.343 7.757a1 1 0 0 1 1.414-1.414L12 10.586l4.243-4.243a1 1 0 0 1 1.414 0z"/>
        </symbol>
        <symbol id="icon-menu" viewBox="0 0 24 24">
            <title>Menu Icon</title>
            <path d="M20 6a1 1 0 0 1-1 1H5a1 1 0 1 1 0-2h14a1 1 0 0 1 1 1zm0 6a1 1 0 0 1-1 1H5a1 1 0 0 1 0-2h14a1 1 0 0 1 1 1zm0 6a1 1 0 0 1-1 1H5a1 1 0 0 1 0-2h14a1 1 0 0 1 1 1z"/>
        </symbol>
        <symbol id="icon-copy" viewBox="0 0 16 16">
            <title>Copy Icon</title>
            <path d="M6.667 5.333c-.737 0-1.334.597-1.334 1.334v6.666c0 .737.597 1.334 1.334 1.334h6.666c.737 0 1.334-.597 1.334-1.334V6.667c0-.737-.597-1.334-1.334-1.334zm0 1.334h6.666v6.666H6.667V6.667zm-4-5.334c-.693 0-1.263.53-1.328 1.205l-.006.129v6.666c0 .693.53 1.263 1.205 1.328l.129.006h2V9.331l-2 .001V2.667h6.666v2h1.334v-2c0-.693-.53-1.263-1.205-1.328l-.129-.006H2.667z"/>
        </symbol>
        <symbol id="icon-open" viewBox="0 0 16 16">
            <title>Open Icon</title>
            <path d="m12.758 2.674.022.004a.662.662 0 0 1 .348.184l.022.023a.67.67 0 0 1 .03.035l-.052-.058a.67.67 0 0 1 .19.394l.005.077v5.334a.667.667 0 0 1-1.329.077l-.004-.077-.001-3.723-8.184 8.194a.667.667 0 0 1-.999-.88l.056-.062L11.048 4H7.334a.667.667 0 0 1-.663-.589l-.004-.078c0-.342.257-.623.589-.662l.078-.004h5.322a.67.67 0 0 1 .102.007z"/>
        </symbol>
        <symbol id="icon-stability-pool" viewBox="0 0 24 24">
            <title>Stability Pool Icon</title>
            <path d="M20.94 3a1 1 0 0 1 .116 1.993L20.939 5H3a1 1 0 0 1-.116-1.993L3 3h17.94zm-.315 4a1 1 0 0 1 .737 1.855l-.108.043-2.099.695a4 4 0 0 1-2.288.068l-.248-.075-1.085-.366a2 2 0 0 0-1.1-.051l-.179.051-1.069.361a4 4 0 0 1-2.317.074l-.251-.077-1.048-.356a2 2 0 0 0-1.1-.054l-.18.05-1.086.365a4 4 0 0 1-2.328.065l-.252-.078-1.951-.676a1 1 0 0 1 .542-1.922l.113.032 1.95.676a2 2 0 0 0 1.11.058l.18-.052 1.087-.364a4 4 0 0 1 2.309-.07l.25.077 1.048.356a2 2 0 0 0 1.104.053l.18-.052 1.07-.36a4 4 0 0 1 2.307-.076l.25.075 1.085.366a2 2 0 0 0 1.09.054l.178-.05L20.625 7zM6.608 12.806l.123-.112a3.102 3.102 0 0 1 4.243-.13l.156.147c.394.4 1.019.432 1.45.095l.11-.098a3.11 3.11 0 0 1 4.254-.147l.156.147c.5.503 1.266.612 1.882.284l.129-.077 1.278-.842a1 1 0 0 1 1.194 1.6l-.094.07-1.277.842a3.596 3.596 0 0 1-4.381-.326l-.151-.143a1.111 1.111 0 0 0-1.476-.084l-.096.086-.028.028a3.093 3.093 0 0 1-4.232.105l-.147-.14a1.1 1.1 0 0 0-1.461-.087l-.108.097a3.561 3.561 0 0 1-4.365.523l-.172-.111-1.162-.801A1 1 0 0 1 3.46 12.02l.108.065 1.162.801a1.56 1.56 0 0 0 1.878-.08zm6.14 4.705a2.5 2.5 0 0 1 4.18-.174l.113.173.726 1.214a.5.5 0 0 0 .685.173l.05-.034.045-.04 1.69-1.667a1 1 0 0 1 1.488 1.33l-.084.093-1.69 1.668a2.5 2.5 0 0 1-3.809-.353l-.092-.144-.726-1.214a.5.5 0 0 0-.805-.073l-.053.073-.412.69a2.5 2.5 0 0 1-4.205.137l-.092-.145-.404-.68a.5.5 0 0 0-.805-.076l-.053.073-.716 1.188a2.5 2.5 0 0 1-3.808.574l-.129-.124-1.56-1.61a1 1 0 0 1 1.344-1.476l.092.085 1.56 1.61a.5.5 0 0 0 .708.01l.043-.047.037-.053.715-1.189a2.5 2.5 0 0 1 4.18-.158l.113.173.403.68a.5.5 0 0 0 .812.07l.048-.068.412-.69z"/>
        </symbol>
        <symbol id="icon-bitcoin" viewBox="0 0 16 22">
            <title>Bitcoin Icon</title>
            <path d="M15.958 8.514c.333-2.225-1.361-3.421-3.678-4.22l.751-3.014-1.835-.457-.731 2.935c-.483-.12-.978-.234-1.47-.346L9.73.457 7.898 0l-.752 3.014c-.4-.091-.792-.181-1.172-.276l.002-.01-2.53-.631-.489 1.96s1.362.312 1.333.331c.743.186.877.677.855 1.067L4.29 8.89c.051.013.117.031.19.06l-.193-.047-1.2 4.81c-.091.227-.322.566-.841.437.018.027-1.334-.333-1.334-.333L0 15.917l2.388.596c.444.111.88.228 1.308.337l-.759 3.05 1.833.457.752-3.017c.5.136.987.261 1.462.38l-.75 3.002 1.836.457.76-3.043c3.129.592 5.481.353 6.472-2.477.798-2.279-.04-3.593-1.686-4.45 1.199-.277 2.102-1.065 2.343-2.694Zm-4.193 5.88c-.567 2.278-4.403 1.047-5.647.738l1.007-4.04c1.244.31 5.233.925 4.64 3.302Zm.568-5.913c-.517 2.073-3.71 1.02-4.747.762L8.5 5.579c1.036.258 4.372.74 3.833 2.902Z"/>
        </symbol>
        <symbol id="icon-network" viewBox="0 0 16 16">
            <title>Network Icon</title>
            <path d="M6.626 2.113c.257-.651 1.185-.562 1.338.087l.015.083 1.052 8.429 1.125-3.013a.704.704 0 0 1 .572-.452l.087-.005h3.517a.704.704 0 0 1 .082 1.402l-.082.005h-3.03l-1.954 5.24c-.247.662-1.187.58-1.343-.074l-.015-.085-1.066-8.534L5.74 8.203a.704.704 0 0 1-.57.44l-.085.006H1.704a.704.704 0 0 1-.082-1.403l.082-.004 2.902-.001 2.02-5.128z"/>
        </symbol>
        <symbol id="icon-moneta" viewBox="0 0 24 24">
            <title>Moneta Icon</title>
            <path d="M13.885 18.173a1.5 1.5 0 0 1-.851-.269c-.654-.456-.797-1.373-.39-2.054L19.75 3.877a.941.941 0 0 0-.22-1.22A11.966 11.966 0 0 0 10.589.082C5.103.708.692 5.135.077 10.622a11.99 11.99 0 0 0 1.747 7.738L8.832 6.557a1.496 1.496 0 0 1 2.285-.346c.538.478.62 1.296.252 1.917L4.251 20.123a.941.941 0 0 0 .22 1.22c2.395 1.933 5.542 2.965 8.941 2.575 5.487-.626 9.903-5.053 10.513-10.54a11.99 11.99 0 0 0-1.747-7.738L15.17 17.443c-.28.467-.774.73-1.285.73Zm-3.378-.73a1.487 1.487 0 0 1-2.136.461c-.654-.456-.797-1.373-.39-2.054l5.47-9.216c.412-.698 1.302-1.01 2.021-.632.764.401 1.027 1.351.593 2.087l-5.558 9.354Z"/>
        </symbol>
        <symbol id="icon-arrow-next" viewBox="0 0 16 16">
            <title>Arrow Next</title>
           <path d="m15.21 7.72.035.038a.67.67 0 0 1 .16.433v.02a.67.67 0 0 1-.005.066l.006-.086a.67.67 0 0 1-.138.407l-.057.065-3.772 3.771a.667.667 0 0 1-.994-.884l.052-.058 2.631-2.634-10.247.007a.667.667 0 0 1-.085-1.328l.084-.005 10.25-.007-2.626-2.626a.667.667 0 0 1-.052-.884l.052-.059a.667.667 0 0 1 .885-.051l.058.051L15.21 7.72z" />
        </symbol>
        <symbol id="icon-arrow-back" viewBox="0 0 16 16">
            <title>Arrow Back</title>
           <path d="m1.79 7.72-.035.038a.67.67 0 0 0-.16.433v.02a.67.67 0 0 0 .005.066l-.006-.086a.67.67 0 0 0 .138.407l.057.065 3.772 3.771a.667.667 0 0 0 .994-.884l-.052-.058-2.631-2.634 10.247.007a.667.667 0 0 0 .085-1.328l-.084-.005-10.25-.007 2.626-2.626a.667.667 0 0 0 .052-.884l-.052-.059a.667.667 0 0 0-.885-.051l-.058.051L1.79 7.72z"/>
        </symbol>
        <symbol id="icon-copy" viewBox="0 0 16 16">
            <title>Copy</title>
           <path  d="M6.667 5.333c-.737 0-1.334.597-1.334 1.334v6.666c0 .737.597 1.334 1.334 1.334h6.666c.737 0 1.334-.597 1.334-1.334V6.667c0-.737-.597-1.334-1.334-1.334zm0 1.334h6.666v6.666H6.667V6.667zm-4-5.334c-.737 0-1.334.597-1.334 1.334v6.666c0 .737.597 1.334 1.334 1.334h2V9.331l-2 .001V2.667h6.666v2h1.334v-2c0-.693-.53-1.263-1.205-1.328l-.129-.006H2.667z"/>
        </symbol>
        <symbol id="icon-redirect" viewBox="0 0 16 16">
            <title>Redirect</title>
           <path  d="m12.758 2.674.022.004a.662.662 0 0 1 .348.184l.022.023a.67.67 0 0 1 .03.035l-.052-.058a.67.67 0 0 1 .19.384l.005.087v5.334a.667.667 0 0 1-1.329.077l-.004-.077-.001-3.723-8.184 8.194a.667.667 0 0 1-.999-.88l.056-.062L11.048 4H7.334a.667.667 0 0 1-.663-.589l-.004-.078c0-.342.257-.623.589-.662l.078-.004h5.322a.67.67 0 0 1 .102.007z" />
        </symbol>
         <symbol id="icon-check" viewBox="0 0 24 24">
            <title>Check</title>
           <path  d="M20.285 2l-11.285 11.567-5.286-5.011-3.714 3.716 9 8.728 15-15.285z"/>
        </symbol>
         <symbol id="icon-risky-troves" viewBox="0 0 24 24">
            <title>Risky Troves</title>
          <path  d="M18.304 2a1 1 0 0 1 1 1v8h-2V4H6v16h7.609c.491 0 .961-.098 1.392-.274v2.101a5.666 5.666 0 0 1-1.392.173H5a1 1 0 0 1-1-1V3a1 1 0 0 1 1-1h13.304zm1.157 17.3V21h-1.763v-1.7h1.763zm-.073-5.36v1.791l-.26 2.808h-1.107l-.25-2.808V13.94h1.617zm-6.17-.2a1 1 0 1 1 0 2H8.521a1 1 0 1 1 0-2h4.695zm1.565-3.131a1 1 0 1 1 0 2H8.522a1 1 0 0 1 0-2h6.26zm0-3.13a1 1 0 0 1 0 2H8.522a1 1 0 1 1 0-2h6.26z"/>
        </symbol>
         <symbol id="icon-documentation" viewBox="0 0 24 24">
            <title>Documentation</title>
          <path d="M9.948 2c.783 0 1.496.3 2.03.791A2.982 2.982 0 0 1 14.006 2h6.148a2 2 0 0 1 2 2v13.862a2 2 0 0 1-2.003 1.993h-3.03c-2.121 0-3.479.699-4.234 2.105a.969.969 0 0 1-.91.527.97.97 0 0 1-.91-.527c-.755-1.406-2.113-2.105-4.234-2.105H3.806A2 2 0 0 1 1.8 17.86V4a2 2 0 0 1 2-2h6.148zm0 2H3.8v13.855h3.033c1.608 0 2.968.345 4.048 1.033l.066.043V5a1 1 0 0 0-.883-.993L9.948 4zm10.206 0h-6.148a1 1 0 0 0-1 1v13.931l.067-.043c1.013-.645 2.27-.988 3.75-1.029l.298-.004h3.033V4z"/>
        </symbol>
         <symbol id="icon-discord" viewBox="0 0 124 34">
            <title>Discord</title>
            <path d="M26.0015 6.9529C24.0021 6.03845 21.8787 5.37198 19.6623 5C19.3833 5.48048 19.0733 6.13144 18.8563 6.64292C16.4989 6.30193 14.1585 6.30193 11.8336 6.64292C11.6166 6.13144 11.2911 5.48048 11.0276 5C8.79575 5.37198 6.67235 6.03845 4.6869 6.9529C0.672601 12.8736 -0.41235 18.6548 0.130124 24.3585C2.79599 26.2959 5.36889 27.4739 7.89682 28.2489C8.51679 27.4119 9.07477 26.5129 9.55525 25.5675C8.64079 25.2265 7.77283 24.808 6.93587 24.312C7.15286 24.1571 7.36986 23.9866 7.57135 23.8161C12.6241 26.1255 18.0969 26.1255 23.0876 23.8161C23.3046 23.9866 23.5061 24.1571 23.7231 24.312C22.8861 24.808 22.0182 25.2265 21.1037 25.5675C21.5842 26.5129 22.1422 27.4119 22.7621 28.2489C25.2885 27.4739 27.8769 26.2959 30.5288 24.3585C31.1952 17.7559 29.4733 12.0212 26.0015 6.9529ZM10.2527 20.8402C8.73376 20.8402 7.49382 19.4608 7.49382 17.7714C7.49382 16.082 8.70276 14.7025 10.2527 14.7025C11.7871 14.7025 13.0425 16.082 13.0115 17.7714C13.0115 19.4608 11.7871 20.8402 10.2527 20.8402ZM20.4373 20.8402C18.9183 20.8402 17.6768 19.4608 17.6768 17.7714C17.6768 16.082 18.8873 14.7025 20.4373 14.7025C21.9717 14.7025 23.2271 16.082 23.1961 17.7714C23.1961 19.4608 21.9872 20.8402 20.4373 20.8402Z"></path>
        </symbol>
         <symbol id="icon-github" viewBox="0 0 24 24">
            <title>Github</title>
            <path fill-rule="evenodd" d="M12 0C5.37 0 0 5.37 0 12c0 5.31 3.435 9.795 8.205 11.385c.6.105.825-.255.825-.57c0-.285-.015-1.23-.015-2.235c-3.015.555-3.795-.735-4.035-1.41c-.135-.345-.72-1.41-1.23-1.695c-.42-.225-1.02-.78-.015-.795c.945-.015 1.62.87 1.845 1.23c1.08 1.815 2.805 1.305 3.495.99c.105-.78.42-1.305.765-1.605c-2.67-.3-5.46-1.335-5.46-5.925c0-1.305.465-2.385 1.23-3.225c-.12-.3-.54-1.53.12-3.18c0 0 1.005-.315 3.3 1.23c.96-.27 1.98-.405 3-.405s2.04.135 3 .405c2.295-1.56 3.3-1.23 3.3-1.23c.66 1.65.24 2.88.12 3.18c.765.84 1.23 1.905 1.23 3.225c0 4.605-2.805 5.625-5.475 5.925c.435.375.81 1.095.81 2.22c0 1.605-.015 2.895-.015 3.3c0 .315.225.69.825.57A12.02 12.02 0 0 0 24 12c0-6.63-5.37-12-12-12Z" clip-rule="evenodd"></path>
        </symbol>
         <symbol id="icon-telegram" viewBox="0 0 512 512">
            <title>Telegram</title>
            <path d="M470.435 45.423L16.827 221.249c-18.254 8.188-24.428 24.585-4.412 33.484l116.37 37.173l281.368-174.79c15.363-10.973 31.091-8.047 17.557 4.024L186.053 341.075l-7.591 93.076c7.031 14.371 19.905 14.438 28.117 7.295l66.858-63.589l114.505 86.187c26.595 15.826 41.066 5.613 46.788-23.394l75.105-357.47c7.798-35.705-5.5-51.437-39.4-37.757z"></path>
        </symbol>
    </defs>
</svg>