<svg xmlns="http://www.w3.org/2000/svg" width="17" height="13" viewBox="0 0 16 13"><defs><linearGradient id="a" gradientUnits="userSpaceOnUse" x1="360.879" y1="351.455" x2="141.213" y2="-69.294" gradientTransform="matrix(.04023 0 0 -.0417 0 13.095)"><stop offset="0" style="stop-color:#00ffa3;stop-opacity:1"/><stop offset="1" style="stop-color:#dc1fff;stop-opacity:1"/></linearGradient><linearGradient id="b" gradientUnits="userSpaceOnUse" x1="264.829" y1="401.601" x2="45.163" y2="-19.148" gradientTransform="matrix(.04023 0 0 -.0417 0 13.095)"><stop offset="0" style="stop-color:#00ffa3;stop-opacity:1"/><stop offset="1" style="stop-color:#dc1fff;stop-opacity:1"/></linearGradient><linearGradient id="c" gradientUnits="userSpaceOnUse" x1="312.548" y1="376.688" x2="92.882" y2="-44.061" gradientTransform="matrix(.04023 0 0 -.0417 0 13.095)"><stop offset="0" style="stop-color:#00ffa3;stop-opacity:1"/><stop offset="1" style="stop-color:#dc1fff;stop-opacity:1"/></linearGradient></defs><path style="stroke:none;fill-rule:nonzero;fill:url(#a)" d="M2.598 9.922a.514.514 0 0 1 .37-.16h12.77c.235 0 .352.293.184.465l-2.52 2.613a.514.514 0 0 1-.37.16H.261c-.235 0-.352-.293-.184-.465Zm0 0"/><path style="stroke:none;fill-rule:nonzero;fill:url(#b)" d="M2.598.16a.528.528 0 0 1 .37-.16h12.77c.235 0 .352.293.184.465l-2.52 2.613a.514.514 0 0 1-.37.16H.261c-.235 0-.352-.293-.184-.465Zm0 0"/><path style="stroke:none;fill-rule:nonzero;fill:url(#c)" d="M13.402 5.008a.527.527 0 0 0-.37-.156H.261c-.235 0-.352.293-.184.46l2.52 2.618c.097.097.23.156.37.156h12.77c.235 0 .352-.293.184-.461Zm0 0"/></svg>