<svg xmlns="http://www.w3.org/2000/svg" width="21" height="18" viewBox="0 0 20 18"><path style="stroke:none;fill-rule:evenodd;fill:#50af95;fill-opacity:1" d="M3.66.09.016 8.016a.154.154 0 0 0 .03.175l9.849 9.762a.149.149 0 0 0 .21 0l9.848-9.758a.162.162 0 0 0 .031-.18L16.34.095a.154.154 0 0 0-.137-.09H3.797A.15.15 0 0 0 3.66.09Zm0 0"/><path style="stroke:none;fill-rule:evenodd;fill:#fff;fill-opacity:1" d="M11.266 8.828c-.07.004-.438.027-1.25.027-.649 0-1.11-.02-1.27-.027-2.508-.113-4.375-.566-4.375-1.105 0-.54 1.867-.993 4.375-1.106V8.38c.164.012.633.039 1.281.039.778 0 1.164-.031 1.235-.04v-1.76c2.5.116 4.367.566 4.367 1.105s-1.867.988-4.367 1.105Zm0-2.394V4.859h3.488V2.453H5.258V4.86h3.484v1.575c-2.832.136-4.965.714-4.965 1.414 0 .695 2.133 1.273 4.965 1.41v5.05h2.524V9.255c2.828-.133 4.957-.715 4.957-1.41 0-.696-2.13-1.274-4.957-1.41Zm0 0Zm0 0"/></svg>