<svg width="16" height="17" xmlns="http://www.w3.org/2000/svg"><path d="M15.782 5.072c-.789-.729-1.88-1.842-2.77-2.63l-.052-.038a1.005 1.005 0 0 0-.292-.163C10.524 1.841.548-.023.352.001A.368.368 0 0 0 .2.057l-.05.04a.587.587 0 0 0-.137.22L0 .354v.216C1.123 3.695 5.558 13.94 6.431 16.344c.053.164.153.474.34.49h.042c.1 0 .526-.563.526-.563s7.617-9.238 8.388-10.222c.1-.121.188-.251.263-.39a.634.634 0 0 0-.208-.588ZM9.293 6.147l3.251-2.696 1.907 1.757-5.158.94Zm-1.262-.176L2.433 1.384l9.057 1.67-3.46 2.917Zm.505 1.202 5.729-.923-6.55 7.891.82-6.968ZM1.673 1.841l5.89 4.998-.853 7.307L1.673 1.841Z" fill="#FF060A" fill-rule="nonzero"/></svg>