<svg width="16" height="16" viewBox="0 0 16 16" xmlns="http://www.w3.org/2000/svg">
    <path d="M7.64 13.597a3.334 3.334 0 0 1-3.3-2.857l-.635.39a1.333 1.333 0 0 0-.638 1.137v1.416a.667.667 0 1 1-1.334 0v-1.416c0-.93.484-1.792 1.278-2.276L4.306 9.2l.001-1.172c0-.233.024-.46.07-.68L3.01 6.515a2.667 2.667 0 0 1-1.278-2.276V2.823a.667.667 0 0 1 1.334 0v1.416c0 .464.242.896.638 1.138l1.207.735c.207-.294.46-.553.748-.766a2.18 2.18 0 0 1 1.584-3.68h1.514a2.18 2.18 0 0 1 1.585 3.68c.285.211.536.467.741.756l1.189-.725c.396-.242.638-.674.638-1.138V2.823a.667.667 0 1 1 1.334 0v1.416c0 .93-.484 1.792-1.278 2.276l-1.343.82c.047.223.072.455.072.693v1.186l1.271.777a2.667 2.667 0 0 1 1.271 2.091l.007.185v1.416a.667.667 0 1 1-1.334 0v-1.416c0-.464-.242-.896-.638-1.138l-.613-.374a3.334 3.334 0 0 1-3.297 2.842zm-.305-7.546A2 2 0 0 0 5.64 8.028v2.236a2 2 0 0 0 1.695 1.977zm1.333 0v6.19a2 2 0 0 0 1.695-1.977V8.028A2 2 0 0 0 8.668 6.05zM8.758 3H7.245a.847.847 0 1 0 0 1.694h1.513a.847.847 0 1 0 0-1.694z" fill="#000" fill-rule="nonzero"/>
</svg>
