<?xml version="1.0" encoding="UTF-8"?>
<svg width="75px" height="16px" viewBox="0 0 75 16" version="1.1" xmlns="http://www.w3.org/2000/svg" xmlns:xlink="http://www.w3.org/1999/xlink">
    <title>immunefi-logo-white</title>
    <g id="Page-1" stroke="none" stroke-width="1" fill="none" fill-rule="evenodd">
        <g id="DCHF-dashboard-" transform="translate(-1115.000000, -32.000000)" fill="#000000" fill-rule="nonzero">
            <g id="Group-14" transform="translate(617.000000, 32.000000)">
                <g id="immunefi-logo-white" transform="translate(498.000000, 0.000000)">
                    <g id="Group">
                        <polygon id="Path" points="4.15911201 6.74517107 9.31221609 11.9907655 14.4102892 6.80120044 18.5902874 11.0561973 13.7336637 16 12.4842848 14.7620825 16.1247957 11.0561973 14.4102892 9.31090062 9.31221609 14.5005057 4.15911201 9.25491119 2.46547173 10.9789623 6.16135309 14.7411963 4.91197415 15.9791138 0 10.9789623"></polygon>
                        <polygon id="Path" points="14.4312153 9.25479139 9.27811126 4.00923686 4.1800781 9.19880196 6.39844955e-05 4.94376512 4.85666362 0 6.10604256 1.23791988 2.46553163 4.94376512 4.1800781 6.68910177 9.27811126 1.49949674 14.4312153 6.7450912 16.1248756 5.02100018 12.4289743 1.25879012 13.6783532 0.0208686418 18.5903274 5.02100018"></polygon>
                        <polygon id="Path" points="8.50887562 15.8767594 8.50887562 12.5718256 10.1916335 12.5718256 10.1916335 15.8767594"></polygon>
                        <polygon id="Path" points="8.50887562 3.42815684 8.50887562 0.123239042 10.1916335 0.123239042 10.1916335 3.42815684"></polygon>
                    </g>
                    <polygon id="Path" points="24.2606747 3.90185057 22.5838672 3.90185057 22.5838672 12.3444334 24.2606747 12.3444334"></polygon>
                    <path d="M32.7661958,6.12972665 C32.0039887,6.12972665 31.2770048,6.45807549 30.9135128,7.17335842 C30.5382798,6.45807549 29.8347378,6.12972665 29.0139057,6.12972665 C28.2751807,6.12972665 27.7123711,6.4111514 27.4192053,6.91537574 L27.2433298,6.24701691 L25.7189557,6.24701691 L25.7189557,12.3444334 L27.3605802,12.3444334 L27.3605802,8.93219324 C27.3605802,8.02933375 27.8296214,7.59547558 28.5214223,7.59547558 C29.1780801,7.59547558 29.6236793,8.00589167 29.6236793,9.00255941 L29.6236793,12.3444334 L31.2066386,12.3444334 L31.2066386,8.96737632 C31.2300807,8.01759274 31.722564,7.59547558 32.3674807,7.59547558 C33.0358795,7.59547558 33.4697377,8.00589167 33.4697377,8.92049217 L33.4697377,12.3561345 L35.1230632,12.3561345 L35.1230632,8.59218325 C35.1230632,6.90363474 33.9856631,6.12972665 32.7661958,6.12972665 L32.7661958,6.12972665 Z" id="Path"></path>
                    <path d="M43.4728761,6.12972665 C42.7105093,6.12972665 41.9836851,6.45807549 41.620273,7.17335842 C41.2448802,6.45807549 40.5412185,6.12972665 39.720586,6.12972665 C38.981861,6.12972665 38.4190115,6.4111514 38.1258857,6.91537574 L37.9499702,6.24701691 L36.4256361,6.24701691 L36.4256361,12.3444334 L38.0672605,12.3444334 L38.0672605,8.93219324 C38.0672605,8.02933375 38.5362618,7.59547558 39.2281027,7.59547558 C39.8847604,7.59547558 40.3303596,8.00589167 40.3303596,9.00255941 L40.3303596,12.3444334 L41.9133988,12.3444334 L41.9133988,8.96737632 C41.9365613,8.01759274 42.4293641,7.59547558 43.0743208,7.59547558 C43.74244,7.59547558 44.1765378,8.00589167 44.1765378,8.92049217 L44.1765378,12.3561345 L45.8298633,12.3561345 L45.8298633,8.59218325 C45.8298633,6.90363474 44.6925032,6.12972665 43.4728761,6.12972665 L43.4728761,6.12972665 Z" id="Path"></path>
                    <path d="M51.1308881,6.24701691 L51.1308881,9.588851 C51.1308881,10.4917504 50.708771,11.0311179 49.8996798,11.0428589 C49.1257318,11.066301 48.6333283,10.6090007 48.6333283,9.65921717 L48.6333283,6.24701691 L47.073851,6.24701691 L47.073851,9.87027575 C47.073851,11.429793 47.976391,12.4616838 49.5362677,12.4616838 C50.2630919,12.4616838 50.7906385,12.1333349 51.1073262,11.6760347 L51.1895932,12.3444334 L52.6903654,12.3444334 L52.6903654,6.24701691 L51.1308881,6.24701691 Z" id="Path"></path>
                    <path d="M57.5077726,6.12972665 C56.5932519,6.12972665 55.9834384,6.46977657 55.6667507,6.97400091 L55.5729025,6.24701691 L54.0485683,6.24701691 L54.0485683,12.3444334 L55.6903126,12.3444334 L55.6903126,9.11980974 C55.6903126,8.13484307 56.1591541,7.53685041 57.0269504,7.53685041 C57.8244603,7.53685041 58.3052825,8.05277583 58.3052825,9.06118457 L58.3052825,12.3444334 L59.958608,12.3444334 L59.958608,8.72113466 C59.958608,7.16161741 59.0672499,6.12972665 57.5077726,6.12972665 L57.5077726,6.12972665 Z" id="Path"></path>
                    <path d="M67.1377945,9.20191692 C67.1377945,7.3374929 65.9297487,6.12972665 64.1122888,6.12972665 C62.2948288,6.12972665 61.0756011,7.39611807 61.0756011,9.29572517 C61.0756011,11.2070333 62.2948288,12.4733848 64.1242694,12.4733848 C65.6601848,12.4733848 66.8211068,11.6174095 67.0906708,10.3510181 L65.4373453,10.3510181 C65.2500483,10.8786845 64.7692261,11.1483682 64.1709938,11.1483682 C63.3854645,11.1483682 62.7520891,10.6441838 62.7289266,9.74128441 L67.1377945,9.74128441 L67.1377945,9.20191692 Z M64.1122888,7.40785908 C64.8275317,7.40785908 65.425764,7.81827517 65.4960503,8.66250949 L62.7405078,8.66250949 C62.8107941,7.81827517 63.4090264,7.40785908 64.1122888,7.40785908 Z" id="Shape"></path>
                    <path d="M67.7787577,6.24701691 L67.7787577,7.67754282 L68.7168402,7.67754282 L68.7168402,12.3444334 L70.3701657,12.3444334 L70.3701657,7.67754282 L71.7655085,7.67754282 L71.7655085,6.24701691 L70.3701657,6.24701691 L70.3701657,5.62554224 C70.3701657,5.19168407 70.4871764,4.86337516 71.155695,4.86337516 L71.7655085,4.86337516 L71.7655085,3.52661757 L70.7922829,3.52661757 C69.2559681,3.52661757 68.7168402,4.27708358 68.7168402,5.46136782 L68.7168402,6.24701691 L67.7787577,6.24701691 Z" id="Path"></path>
                    <path d="M72.8497546,5.3089344 L74.5146614,5.3089344 L74.5382232,3.52661757 L72.8733165,3.52661757 L72.8497546,5.3089344 Z M72.8733165,12.3444334 L74.5146614,12.3444334 L74.5146614,6.24701691 L72.8733165,6.24701691 L72.8733165,12.3444334 Z" id="Shape"></path>
                </g>
            </g>
        </g>
    </g>
</svg>