<svg width="32" height="20" xmlns="http://www.w3.org/2000/svg"><path d="M6.555 3.819c5.213-5.092 13.677-5.092 18.89 0l.628.618a.636.636 0 0 1 0 .92l-2.146 2.096a.336.336 0 0 1-.476 0l-.86-.84c-3.645-3.553-9.537-3.553-13.181 0l-.922.901a.336.336 0 0 1-.475 0L5.866 5.42a.636.636 0 0 1 0-.922l.689-.678Zm23.334 4.333 1.914 1.863a.636.636 0 0 1 0 .92l-8.615 8.413a.679.679 0 0 1-.942 0l-6.114-5.972a.172.172 0 0 0-.233 0l-6.115 5.972a.679.679 0 0 1-.941 0L.197 10.936a.636.636 0 0 1 0-.921l1.914-1.863a.679.679 0 0 1 .941 0l6.115 5.973c.06.06.172.06.233 0l6.114-5.973a.679.679 0 0 1 .942 0l6.114 5.973c.06.06.172.06.233 0l6.114-5.973a.717.717 0 0 1 .972 0Z" fill="#217FFC" fill-rule="nonzero"/></svg>