<svg width="19" height="18" xmlns="http://www.w3.org/2000/svg"><g fill-rule="nonzero" fill="none" stroke-linecap="round" stroke-linejoin="round"><path stroke="#E2761B" fill="#E2761B" d="m17 1.242-6.545 4.849 1.21-2.86z"/><g fill="#E4761B" stroke="#E4761B"><path d="m1.942 1 6.58 5.008-1.166-2.974zM14.87 12.5l-1.767 2.725 3.78 1.048 1.087-3.713zM1.242 12.56l1.08 3.713 3.78-1.048L4.337 12.5z"/><path d="M5.89 7.895 4.835 9.499l3.753.168-.133-4.062zM13.31 7.895l-2.6-2.337-.087 4.109 3.747-.168zM6.103 15.225l2.253-1.107-1.947-1.53zM10.843 14.118l2.26 1.107-.313-2.638z"/></g><g fill="#D7C1B3" stroke="#D7C1B3"><path d="m13.121 15.237-2.27-1.146.181 1.536-.02.646zM6.09 15.237l2.11 1.036-.013-.646.167-1.536z"/></g><path stroke="#233447" fill="#233447" d="m8.273 11.667-1.94-.579 1.369-.633zM10.94 11.667l.568-1.212 1.37.633z"/><g fill="#CD6116" stroke="#CD6116"><path d="m6.142 15.06.317-2.653-2.065.059zM12.753 12.407l.317 2.654 1.748-2.595zM14.323 9.485l-3.708.163.344 1.89.547-1.138 1.32.595zM6.393 10.995l1.32-.595.54 1.137.35-1.889-3.714-.163z"/></g><g fill="#E4751F" stroke="#E4751F"><path d="m4.879 9.485 1.56 3.064-.053-1.525zM12.833 11.024l-.067 1.525 1.567-3.064zM8.601 9.651l-.35 1.926.436 2.271.1-2.99zM10.618 9.651l-.179 1.2.08 2.997.442-2.271z"/></g><path stroke="#F6851B" fill="#F6851B" d="m10.919 11.512-.464 2.351.332.228 2.023-1.572.069-1.58zM6.09 10.94l.057 1.579L8.18 14.09l.334-.228-.46-2.351z"/><path stroke="#C0AD9E" fill="#C0AD9E" d="m11.012 16.335.02-.644-.167-.152H8.34l-.154.152.013.644-2.11-1.032.737.623L8.321 17h2.564l1.5-1.074.736-.623z"/><path stroke="#161616" fill="#161616" d="m10.755 14.069-.329-.22H8.53l-.329.22-.17 1.476.157-.147h2.58l.171.147z"/><g fill="#763D16" stroke="#763D16"><path d="m17.404 6.416.566-2.682-.845-2.492-6.402 4.694 2.462 2.058L16.665 9l.772-.888-.332-.236.532-.48-.413-.316.533-.4zM1 3.734l.566 2.682-.36.263.533.401-.406.316.532.48-.333.236.766.888 3.48-1.006L8.24 5.936 1.84 1.242z"/></g><path stroke="#F6851B" fill="#F6851B" d="M16.574 9.038 13.147 8.03l1.042 1.575-1.553 3.031 2.045-.026h3.046zM5.821 8.03 2.385 9.038 1.242 12.61H4.29l2.043.026-1.55-3.03zM10.647 9.695l.225-3.804 1.037-2.71H7.303l1.024 2.71.238 3.804.082 1.2.007 2.953h1.89l.014-2.953z"/></g></svg>