<svg width="16" height="22" xmlns="http://www.w3.org/2000/svg"><path d="M15.958 8.514c.333-2.225-1.361-3.421-3.678-4.22l.751-3.014-1.835-.457-.731 2.935c-.483-.12-.978-.234-1.47-.346L9.73.457 7.898 0l-.752 3.014c-.4-.091-.792-.181-1.172-.276l.002-.01-2.53-.631-.489 1.96s1.362.312 1.333.331c.743.186.877.677.855 1.067L4.29 8.89c.051.013.117.031.19.06l-.193-.047-1.2 4.81c-.091.227-.322.566-.841.437.018.027-1.334-.333-1.334-.333L0 15.917l2.388.596c.444.111.88.228 1.308.337l-.759 3.05 1.833.457.752-3.017c.5.136.987.261 1.462.38l-.75 3.002 1.836.457.76-3.043c3.129.592 5.481.353 6.472-2.477.798-2.279-.04-3.593-1.686-4.45 1.199-.277 2.102-1.065 2.343-2.694Zm-4.193 5.88c-.567 2.278-4.403 1.047-5.647.738l1.007-4.04c1.244.31 5.233.925 4.64 3.302Zm.568-5.913c-.517 2.073-3.71 1.02-4.747.762L8.5 5.579c1.036.258 4.372.74 3.833 2.902Z" fill="#F7931A" fill-rule="nonzero"/></svg>