<svg width="117" height="24" xmlns="http://www.w3.org/2000/svg"><g fill="none" fill-rule="evenodd"><path fill="#BF1304" d="M0 12v4.078h8.02V24h4.13V12zM12.15 0v12h12.148V7.922h-8.02V0z"/><g fill="#000"><path d="M36.941 21.088c5.456 0 8.184-3.03 8.2-9.088 0-6.059-2.727-9.088-8.2-9.088h-5.59v18.176h5.59ZM37.192 0c3.465 0 6.26 1.105 8.385 3.314C47.686 5.524 48.74 8.418 48.74 12c0 3.598-1.054 6.493-3.163 8.686-2.126 2.21-4.92 3.314-8.385 3.314H27.87V0h9.322ZM52.213 11.992c0-3.596 1.071-6.502 3.23-8.701C57.585 1.09 60.413 0 63.928 0c2.946 0 5.44.754 7.482 2.278 2.024 1.526 3.045 3.613 3.045 6.262h-3.598c0-3.902-2.092-5.587-6.929-5.587-2.861 0-4.92.706-6.192 2.135-1.289 1.429-1.925 3.724-1.925 6.903 0 3.178.653 5.49 1.942 6.919 1.288 1.428 3.347 2.151 6.175 2.151 4.837 0 6.93-1.573 6.93-5.217h3.597c0 2.584-1.004 4.591-3.029 6.02C69.401 23.293 66.907 24 63.928 24c-3.514 0-6.343-1.108-8.485-3.307-2.159-2.2-3.23-5.105-3.23-8.701M94.401 0H97.9v24h-3.498V13.272h-13.07V24h-3.482V0h3.481v10.36h13.071zM116.752 2.912h-11.899v7.649h11.214v2.912h-11.214V24h-3.48V0h15.38z"/></g></g></svg>